# Blender 3.4.1
# www.blender.org
mtllib cube_cone_scene.mtl
o Cube
v -2.100000 2.000000 -4.000000
v -2.100000 0.000000 -4.000000
v -2.100000 2.000000 -2.000000
v -2.100000 0.000000 -2.000000
v -4.100000 2.000000 -4.000000
v -4.100000 0.000000 -4.000000
v -4.100000 2.000000 -2.000000
v -4.100000 0.000000 -2.000000
vn -0.0000 1.0000 -0.0000
vn -0.0000 -0.0000 1.0000
vn -1.0000 -0.0000 -0.0000
vn -0.0000 -1.0000 -0.0000
vn 1.0000 -0.0000 -0.0000
vn -0.0000 -0.0000 -1.0000
s 0
usemtl Material
f 5//1 3//1 1//1
f 3//2 8//2 4//2
f 7//3 6//3 8//3
f 2//4 8//4 6//4
f 1//5 4//5 2//5
f 5//6 2//6 6//6
f 5//1 7//1 3//1
f 3//2 7//2 8//2
f 7//3 5//3 6//3
f 2//4 4//4 8//4
f 1//5 3//5 4//5
f 5//6 1//6 2//6
o Plane
v -5.000000 0.000000 5.000000
v 5.000000 0.000000 5.000000
v -5.000000 0.000000 -5.000000
v 5.000000 0.000000 -5.000000
vn -0.0000 1.0000 -0.0000
s 0
f 10//7 11//7 9//7
f 10//7 12//7 11//7
o Cone
v 3.000000 0.000000 2.000000
v 3.195090 0.000000 2.019215
v 3.382684 0.000000 2.076120
v 3.555570 0.000000 2.168530
v 3.707107 0.000000 2.292893
v 3.831470 0.000000 2.444430
v 3.923880 0.000000 2.617316
v 3.980785 0.000000 2.804910
v 4.000000 0.000000 3.000000
v 3.980785 0.000000 3.195090
v 3.923880 0.000000 3.382684
v 3.831470 0.000000 3.555570
v 3.707107 0.000000 3.707107
v 3.555570 0.000000 3.831470
v 3.382684 0.000000 3.923880
v 3.195090 0.000000 3.980785
v 3.000000 0.000000 4.000000
v 2.804910 0.000000 3.980785
v 2.617316 0.000000 3.923880
v 2.444430 0.000000 3.831470
v 2.292893 0.000000 3.707107
v 2.168530 0.000000 3.555570
v 2.076120 0.000000 3.382684
v 2.019215 0.000000 3.195090
v 2.000000 0.000000 3.000000
v 2.019215 0.000000 2.804910
v 2.076120 0.000000 2.617316
v 2.168530 0.000000 2.444430
v 2.292893 0.000000 2.292893
v 2.444430 0.000000 2.168530
v 2.617316 0.000000 2.076120
v 2.804910 0.000000 2.019215
v 3.000000 2.000000 3.000000
vn 0.0878 0.4455 -0.8910
vn 0.2599 0.4455 -0.8567
vn 0.4220 0.4455 -0.7896
vn 0.5680 0.4455 -0.6921
vn 0.6921 0.4455 -0.5680
vn 0.7896 0.4455 -0.4220
vn 0.8567 0.4455 -0.2599
vn 0.8910 0.4455 -0.0878
vn 0.8910 0.4455 0.0878
vn 0.8567 0.4455 0.2599
vn 0.7896 0.4455 0.4220
vn 0.6921 0.4455 0.5680
vn 0.5680 0.4455 0.6921
vn 0.4220 0.4455 0.7896
vn 0.2599 0.4455 0.8567
vn 0.0878 0.4455 0.8910
vn -0.0878 0.4455 0.8910
vn -0.2599 0.4455 0.8567
vn -0.4220 0.4455 0.7896
vn -0.5680 0.4455 0.6921
vn -0.6921 0.4455 0.5680
vn -0.7896 0.4455 0.4220
vn -0.8567 0.4455 0.2599
vn -0.8910 0.4455 0.0878
vn -0.8910 0.4455 -0.0878
vn -0.8567 0.4455 -0.2599
vn -0.7896 0.4455 -0.4220
vn -0.6921 0.4455 -0.5680
vn -0.5680 0.4455 -0.6921
vn -0.4220 0.4455 -0.7896
vn -0.0000 -1.0000 -0.0000
vn -0.2599 0.4455 -0.8567
vn -0.0878 0.4455 -0.8910
s 0
f 13//8 45//8 14//8
f 14//9 45//9 15//9
f 15//10 45//10 16//10
f 16//11 45//11 17//11
f 17//12 45//12 18//12
f 18//13 45//13 19//13
f 19//14 45//14 20//14
f 20//15 45//15 21//15
f 21//16 45//16 22//16
f 22//17 45//17 23//17
f 23//18 45//18 24//18
f 24//19 45//19 25//19
f 25//20 45//20 26//20
f 26//21 45//21 27//21
f 27//22 45//22 28//22
f 28//23 45//23 29//23
f 29//24 45//24 30//24
f 30//25 45//25 31//25
f 31//26 45//26 32//26
f 32//27 45//27 33//27
f 33//28 45//28 34//28
f 34//29 45//29 35//29
f 35//30 45//30 36//30
f 36//31 45//31 37//31
f 37//32 45//32 38//32
f 38//33 45//33 39//33
f 39//34 45//34 40//34
f 40//35 45//35 41//35
f 41//36 45//36 42//36
f 42//37 45//37 43//37
f 28//38 36//38 44//38
f 43//39 45//39 44//39
f 44//40 45//40 13//40
f 44//38 13//38 14//38
f 14//38 15//38 16//38
f 16//38 17//38 18//38
f 18//38 19//38 20//38
f 20//38 21//38 22//38
f 22//38 23//38 24//38
f 24//38 25//38 26//38
f 26//38 27//38 28//38
f 28//38 29//38 30//38
f 30//38 31//38 32//38
f 32//38 33//38 34//38
f 34//38 35//38 36//38
f 36//38 37//38 38//38
f 38//38 39//38 40//38
f 40//38 41//38 42//38
f 42//38 43//38 44//38
f 44//38 14//38 16//38
f 16//38 18//38 20//38
f 20//38 22//38 24//38
f 24//38 26//38 28//38
f 28//38 30//38 32//38
f 32//38 34//38 36//38
f 36//38 38//38 40//38
f 40//38 42//38 44//38
f 44//38 16//38 20//38
f 20//38 24//38 28//38
f 28//38 32//38 36//38
f 36//38 40//38 44//38
f 44//38 20//38 28//38
