# Blender 3.4.1
# www.blender.org
mtllib torus.mtl
o Torus
v 1.000000 0.000000 0.000000
v 0.912132 0.212132 0.000000
v 0.700000 0.300000 0.000000
v 0.487868 0.212132 0.000000
v 0.400000 0.000000 0.000000
v 0.487868 -0.212132 0.000000
v 0.700000 -0.300000 0.000000
v 0.912132 -0.212132 0.000000
v 0.866025 0.000000 -0.500000
v 0.789929 0.212132 -0.456066
v 0.606218 0.300000 -0.350000
v 0.422506 0.212132 -0.243934
v 0.346410 0.000000 -0.200000
v 0.422506 -0.212132 -0.243934
v 0.606218 -0.300000 -0.350000
v 0.789929 -0.212132 -0.456066
v 0.500000 0.000000 -0.866025
v 0.456066 0.212132 -0.789930
v 0.350000 0.300000 -0.606218
v 0.243934 0.212132 -0.422506
v 0.200000 0.000000 -0.346410
v 0.243934 -0.212132 -0.422506
v 0.350000 -0.300000 -0.606218
v 0.456066 -0.212132 -0.789930
v 0.000000 0.000000 -1.000000
v 0.000000 0.212132 -0.912132
v 0.000000 0.300000 -0.700000
v 0.000000 0.212132 -0.487868
v 0.000000 0.000000 -0.400000
v 0.000000 -0.212132 -0.487868
v 0.000000 -0.300000 -0.700000
v 0.000000 -0.212132 -0.912132
v -0.500000 0.000000 -0.866026
v -0.456066 0.212132 -0.789930
v -0.350000 0.300000 -0.606218
v -0.243934 0.212132 -0.422506
v -0.200000 0.000000 -0.346410
v -0.243934 -0.212132 -0.422506
v -0.350000 -0.300000 -0.606218
v -0.456066 -0.212132 -0.789930
v -0.866025 0.000000 -0.500000
v -0.789929 0.212132 -0.456066
v -0.606218 0.300000 -0.350000
v -0.422506 0.212132 -0.243934
v -0.346410 0.000000 -0.200000
v -0.422506 -0.212132 -0.243934
v -0.606218 -0.300000 -0.350000
v -0.789929 -0.212132 -0.456066
v -1.000000 0.000000 -0.000000
v -0.912132 0.212132 -0.000000
v -0.700000 0.300000 -0.000000
v -0.487868 0.212132 -0.000000
v -0.400000 0.000000 -0.000000
v -0.487868 -0.212132 -0.000000
v -0.700000 -0.300000 -0.000000
v -0.912132 -0.212132 -0.000000
v -0.866026 0.000000 0.500000
v -0.789930 0.212132 0.456066
v -0.606218 0.300000 0.350000
v -0.422506 0.212132 0.243934
v -0.346410 0.000000 0.200000
v -0.422506 -0.212132 0.243934
v -0.606218 -0.300000 0.350000
v -0.789930 -0.212132 0.456066
v -0.500000 0.000000 0.866026
v -0.456066 0.212132 0.789930
v -0.350000 0.300000 0.606218
v -0.243934 0.212132 0.422506
v -0.200000 0.000000 0.346410
v -0.243934 -0.212132 0.422506
v -0.350000 -0.300000 0.606218
v -0.456066 -0.212132 0.789930
v 0.000000 0.000000 1.000000
v 0.000000 0.212132 0.912132
v 0.000000 0.300000 0.700000
v 0.000000 0.212132 0.487868
v 0.000000 0.000000 0.400000
v 0.000000 -0.212132 0.487868
v 0.000000 -0.300000 0.700000
v 0.000000 -0.212132 0.912132
v 0.500000 0.000000 0.866025
v 0.456066 0.212132 0.789930
v 0.350000 0.300000 0.606218
v 0.243934 0.212132 0.422506
v 0.200000 0.000000 0.346410
v 0.243934 -0.212132 0.422506
v 0.350000 -0.300000 0.606218
v 0.456066 -0.212132 0.789930
v 0.866025 0.000000 0.500000
v 0.789929 0.212132 0.456066
v 0.606218 0.300000 0.350000
v 0.422506 0.212132 0.243934
v 0.346410 0.000000 0.200000
v 0.422506 -0.212132 0.243934
v 0.606218 -0.300000 0.350000
v 0.789929 -0.212132 0.456066
vn 0.8968 0.3715 -0.2403
vn 0.3807 0.9191 -0.1020
vn -0.3807 0.9191 0.1020
vn -0.8968 0.3715 0.2403
vn -0.8968 -0.3715 0.2403
vn -0.3807 -0.9191 0.1020
vn 0.3807 -0.9191 -0.1020
vn 0.8968 -0.3715 -0.2403
vn 0.6565 0.3715 -0.6565
vn 0.2787 0.9191 -0.2787
vn -0.2787 0.9191 0.2787
vn -0.6565 0.3715 0.6565
vn -0.6565 -0.3715 0.6565
vn -0.2787 -0.9191 0.2787
vn 0.2787 -0.9191 -0.2787
vn 0.6565 -0.3715 -0.6565
vn 0.2403 0.3715 -0.8968
vn 0.1020 0.9191 -0.3807
vn -0.1020 0.9191 0.3807
vn -0.2403 0.3715 0.8968
vn -0.2403 -0.3715 0.8968
vn -0.1020 -0.9191 0.3807
vn 0.1020 -0.9191 -0.3807
vn 0.2403 -0.3715 -0.8968
vn -0.2403 0.3715 -0.8968
vn -0.1020 0.9191 -0.3807
vn 0.1020 0.9191 0.3807
vn 0.2403 0.3715 0.8968
vn 0.2403 -0.3715 0.8968
vn 0.1020 -0.9191 0.3807
vn -0.1020 -0.9191 -0.3807
vn -0.2403 -0.3715 -0.8968
vn -0.6565 0.3715 -0.6565
vn -0.2787 0.9191 -0.2787
vn 0.2787 0.9191 0.2787
vn 0.6565 0.3715 0.6565
vn 0.6565 -0.3715 0.6565
vn 0.2787 -0.9191 0.2787
vn -0.2787 -0.9191 -0.2787
vn -0.6565 -0.3715 -0.6565
vn -0.8968 0.3715 -0.2403
vn -0.3807 0.9191 -0.1020
vn 0.3807 0.9191 0.1020
vn 0.8968 0.3715 0.2403
vn 0.8968 -0.3715 0.2403
vn 0.3807 -0.9191 0.1020
vn -0.3807 -0.9191 -0.1020
vn -0.8968 -0.3715 -0.2403
s 0
f 9//1 2//1 1//1
f 2//2 11//2 3//2
f 11//3 4//3 3//3
f 4//4 13//4 5//4
f 13//5 6//5 5//5
f 6//6 15//6 7//6
f 15//7 8//7 7//7
f 16//8 1//8 8//8
f 9//9 18//9 10//9
f 18//10 11//10 10//10
f 19//11 12//11 11//11
f 20//12 13//12 12//12
f 21//13 14//13 13//13
f 14//14 23//14 15//14
f 23//15 16//15 15//15
f 24//16 9//16 16//16
f 25//17 18//17 17//17
f 18//18 27//18 19//18
f 27//19 20//19 19//19
f 20//20 29//20 21//20
f 29//21 22//21 21//21
f 30//22 23//22 22//22
f 31//23 24//23 23//23
f 32//24 17//24 24//24
f 25//25 34//25 26//25
f 34//26 27//26 26//26
f 35//27 28//27 27//27
f 28//28 37//28 29//28
f 37//29 30//29 29//29
f 38//30 31//30 30//30
f 39//31 32//31 31//31
f 40//32 25//32 32//32
f 41//33 34//33 33//33
f 34//34 43//34 35//34
f 43//35 36//35 35//35
f 44//36 37//36 36//36
f 45//37 38//37 37//37
f 46//38 39//38 38//38
f 47//39 40//39 39//39
f 48//40 33//40 40//40
f 41//41 50//41 42//41
f 42//42 51//42 43//42
f 43//43 52//43 44//43
f 52//44 45//44 44//44
f 45//45 54//45 46//45
f 54//46 47//46 46//46
f 55//47 48//47 47//47
f 56//48 41//48 48//48
f 57//4 50//4 49//4
f 58//3 51//3 50//3
f 59//2 52//2 51//2
f 52//1 61//1 53//1
f 53//8 62//8 54//8
f 62//7 55//7 54//7
f 63//6 56//6 55//6
f 56//5 57//5 49//5
f 65//12 58//12 57//12
f 58//11 67//11 59//11
f 67//10 60//10 59//10
f 68//9 61//9 60//9
f 69//16 62//16 61//16
f 70//15 63//15 62//15
f 71//14 64//14 63//14
f 72//13 57//13 64//13
f 73//20 66//20 65//20
f 74//19 67//19 66//19
f 75//18 68//18 67//18
f 76//17 69//17 68//17
f 77//24 70//24 69//24
f 78//23 71//23 70//23
f 79//22 72//22 71//22
f 72//21 73//21 65//21
f 73//28 82//28 74//28
f 82//27 75//27 74//27
f 83//26 76//26 75//26
f 76//25 85//25 77//25
f 85//32 78//32 77//32
f 86//31 79//31 78//31
f 87//30 80//30 79//30
f 88//29 73//29 80//29
f 89//36 82//36 81//36
f 90//35 83//35 82//35
f 83//34 92//34 84//34
f 92//33 85//33 84//33
f 93//40 86//40 85//40
f 94//39 87//39 86//39
f 95//38 88//38 87//38
f 88//37 89//37 81//37
f 1//44 90//44 89//44
f 2//43 91//43 90//43
f 3//42 92//42 91//42
f 4//41 93//41 92//41
f 5//48 94//48 93//48
f 6//47 95//47 94//47
f 7//46 96//46 95//46
f 8//45 89//45 96//45
f 9//1 10//1 2//1
f 2//2 10//2 11//2
f 11//3 12//3 4//3
f 4//4 12//4 13//4
f 13//5 14//5 6//5
f 6//6 14//6 15//6
f 15//7 16//7 8//7
f 16//8 9//8 1//8
f 9//9 17//9 18//9
f 18//10 19//10 11//10
f 19//11 20//11 12//11
f 20//12 21//12 13//12
f 21//13 22//13 14//13
f 14//14 22//14 23//14
f 23//15 24//15 16//15
f 24//16 17//16 9//16
f 25//17 26//17 18//17
f 18//18 26//18 27//18
f 27//19 28//19 20//19
f 20//20 28//20 29//20
f 29//21 30//21 22//21
f 30//22 31//22 23//22
f 31//23 32//23 24//23
f 32//24 25//24 17//24
f 25//25 33//25 34//25
f 34//26 35//26 27//26
f 35//27 36//27 28//27
f 28//28 36//28 37//28
f 37//29 38//29 30//29
f 38//30 39//30 31//30
f 39//31 40//31 32//31
f 40//32 33//32 25//32
f 41//33 42//33 34//33
f 34//34 42//34 43//34
f 43//35 44//35 36//35
f 44//36 45//36 37//36
f 45//37 46//37 38//37
f 46//38 47//38 39//38
f 47//39 48//39 40//39
f 48//40 41//40 33//40
f 41//41 49//41 50//41
f 42//42 50//42 51//42
f 43//43 51//43 52//43
f 52//44 53//44 45//44
f 45//45 53//45 54//45
f 54//46 55//46 47//46
f 55//47 56//47 48//47
f 56//48 49//48 41//48
f 57//4 58//4 50//4
f 58//3 59//3 51//3
f 59//2 60//2 52//2
f 52//1 60//1 61//1
f 53//8 61//8 62//8
f 62//7 63//7 55//7
f 63//6 64//6 56//6
f 56//5 64//5 57//5
f 65//12 66//12 58//12
f 58//11 66//11 67//11
f 67//10 68//10 60//10
f 68//9 69//9 61//9
f 69//16 70//16 62//16
f 70//15 71//15 63//15
f 71//14 72//14 64//14
f 72//13 65//13 57//13
f 73//20 74//20 66//20
f 74//19 75//19 67//19
f 75//18 76//18 68//18
f 76//17 77//17 69//17
f 77//24 78//24 70//24
f 78//23 79//23 71//23
f 79//22 80//22 72//22
f 72//21 80//21 73//21
f 73//28 81//28 82//28
f 82//27 83//27 75//27
f 83//26 84//26 76//26
f 76//25 84//25 85//25
f 85//32 86//32 78//32
f 86//31 87//31 79//31
f 87//30 88//30 80//30
f 88//29 81//29 73//29
f 89//36 90//36 82//36
f 90//35 91//35 83//35
f 83//34 91//34 92//34
f 92//33 93//33 85//33
f 93//40 94//40 86//40
f 94//39 95//39 87//39
f 95//38 96//38 88//38
f 88//37 96//37 89//37
f 1//44 2//44 90//44
f 2//43 3//43 91//43
f 3//42 4//42 92//42
f 4//41 5//41 93//41
f 5//48 6//48 94//48
f 6//47 7//47 95//47
f 7//46 8//46 96//46
f 8//45 1//45 89//45
